<svg t="1646036230994" class="icon" viewBox="0 0 1024 1024" version="1.1" xmlns="http://www.w3.org/2000/svg" p-id="24273" width="200" height="200"><path d="M971.2 515.2H772.8c-8.8 0-16-7.2-16-16V406.4c0-8.8 7.2-16 16-16h198.4c8.8 0 16 7.2 16 16v92.8c0 8.8-7.2 16-16 16z m-182.4-32h166.4v-60.8H788.8v60.8zM251.2 515.2H52.8c-8.8 0-16-7.2-16-16V406.4c0-8.8 7.2-16 16-16h198.4c8.8 0 16 7.2 16 16v92.8c0 8.8-7.2 16-16 16z m-182.4-32h166.4v-60.8H68.8v60.8z" p-id="24274" style="user-select: auto;"></path><path d="M203.2 1020H100.8c-8.8 0-16-7.2-16-16V499.2c0-8.8 7.2-16 16-16h102.4c8.8 0 16 7.2 16 16v504.8c0 8.8-7.2 16-16 16z m-86.4-32h70.4V515.2h-70.4v472.8zM923.2 1020h-102.4c-8.8 0-16-7.2-16-16V499.2c0-8.8 7.2-16 16-16h102.4c8.8 0 16 7.2 16 16v504.8c0 8.8-7.2 16-16 16z m-86.4-32h70.4V515.2h-70.4v472.8zM922.4 422.4h-103.2c-8 0-15.2-6.4-16-14.4-16-148.8-140.8-261.6-291.2-261.6-150.4 0-275.2 112.8-291.2 261.6-0.8 8-8 14.4-16 14.4H101.6c-4.8 0-8.8-1.6-12-4.8-3.2-3.2-4.8-7.2-4-12C99.2 180 286.4 4 512 4s412.8 176 426.4 401.6c0 4-1.6 8.8-4 12-3.2 3.2-7.2 4.8-12 4.8z m-89.6-32h72C884.8 190.4 715.2 36 512 36S139.2 190.4 119.2 390.4h72C214.4 232 350.4 114.4 512 114.4c161.6 0 297.6 117.6 320.8 276z" p-id="24275" style="user-select: auto;"></path><path d="M512 412c-76 0-137.6-61.6-137.6-137.6 0-8.8 7.2-16 16-16h244c8.8 0 16 7.2 16 16-0.8 76-62.4 137.6-138.4 137.6zM407.2 290.4c8 51.2 52 89.6 104.8 89.6s96.8-39.2 104.8-89.6H407.2z" p-id="24276" style="user-select: auto;"></path><path d="M512 290.4c-8.8 0-16-7.2-16-16v-144c0-8.8 7.2-16 16-16s16 7.2 16 16v144c0 8.8-7.2 16-16 16z" p-id="24277" style="user-select: auto;"></path></svg>