<svg t="1646036252875" class="icon" viewBox="0 0 1024 1024" version="1.1" xmlns="http://www.w3.org/2000/svg" p-id="24734" width="200" height="200"><path d="M674.9696 318.1568c-63.9488 0-124.672 22.9888-172.3904 64.9216-47.7184-41.9328-108.3904-64.9216-172.3392-64.9216-144.0768 0-261.2224 117.1968-261.2224 261.2224 0 144.0768 117.1968 261.2224 261.2224 261.2224 63.9488 0 124.672-22.9376 172.3392-64.9216 47.6672 41.9328 108.3904 64.9216 172.3392 64.9216 144.0256 0 261.2224-117.1968 261.2224-261.2224 0.0512-144.0256-117.0944-261.2224-261.1712-261.2224z m-344.6784 495.104c-128.9728 0-233.8816-104.9088-233.8816-233.8816s104.9088-233.8816 233.8816-233.8816c61.1328 0 118.9376 23.4496 162.816 65.9968 10.0352 9.728 19.3024 20.48 27.5456 32 28.4672 39.7824 43.52 86.7328 43.52 135.8336 0 43.3664-11.776 85.0944-34.0992 121.7024-1.4336-1.6384-2.816-3.3792-4.096-5.0688-0.768-0.9216-1.4848-1.8944-2.2016-2.816-0.2048-0.256-0.4096-0.512-0.5632-0.768-0.9728-1.3312-1.9968-2.6624-2.8672-3.9936-0.512-0.7168-1.024-1.4336-1.536-2.2016v-0.0512c18.432-32.4608 28.16-69.1712 28.16-106.8032 0-40.5504-11.3152-80.128-32.6656-114.3808a213.3248 213.3248 0 0 0-31.1296-39.1168c-40.8576-40.704-95.1808-63.1296-152.832-63.1296-119.4496 0-216.6272 97.1776-216.6272 216.6272 0 14.6944 1.4848 29.3888 4.4032 43.6736a13.66016 13.66016 0 0 0 16.128 10.6496 13.6192 13.6192 0 0 0 10.6496-16.128c-2.56-12.4416-3.84-25.2928-3.84-38.144 0-104.3456 84.8896-189.2864 189.2864-189.2864 46.6432 0 90.6752 16.7424 125.2864 47.4624-27.392 42.2912-41.8304 91.0336-41.8304 141.824 0 50.8416 14.4384 99.584 41.8304 141.824-34.6112 30.6688-78.6944 47.4112-125.2864 47.4112-75.008 0-143.0016-44.3392-173.2608-112.9472a13.70112 13.70112 0 0 0-18.0224-7.0144c-6.912 3.072-10.0352 11.1104-7.0144 18.0224 34.6624 78.5408 112.4864 129.28 198.2976 129.28 52.48 0 102.0928-18.5344 141.4144-52.5312 0.1536 0.2048 0.3072 0.3584 0.4608 0.5632 0.512 0.6656 1.0752 1.3312 1.5872 1.9456 1.024 1.2288 2.048 2.4576 3.1232 3.6864 1.3824 1.5872 2.7648 3.1744 4.1984 4.7104 0.6144 0.7168 1.2288 1.3824 1.8944 2.0992-42.496 36.8128-96.2048 56.832-152.7296 56.832z m172.3392-155.5968c-11.1104-24.4224-16.896-51.0976-16.896-78.2848 0-27.1872 5.7856-53.8112 16.896-78.2848 11.1104 24.4224 16.896 51.0976 16.896 78.2848 0 27.1872-5.7856 53.8624-16.896 78.2848z m172.3392 155.5968c-61.184 0-118.9888-23.4496-162.8672-65.9968a233.6256 233.6256 0 0 1-27.5456-32c-28.4672-39.7824-43.4688-86.784-43.4688-135.8848 0-43.3664 11.7248-85.0944 34.0992-121.7024 0.256 0.256 0.512 0.5632 0.7168 0.8704 0.768 0.9216 1.536 1.8432 2.2528 2.7648 0.9728 1.2288 1.9456 2.4576 2.8672 3.6864 0.5632 0.7168 1.1264 1.4848 1.6896 2.2528a99.33312 99.33312 0 0 1 2.4576 3.4816c0.256 0.3072 0.4608 0.6656 0.7168 0.9728 0.2048 0.256 0.4096 0.5632 0.5632 0.8192a215.99232 215.99232 0 0 0-28.1088 106.8032c0 40.6016 11.264 80.128 32.6144 114.3808 8.7552 14.1312 19.2512 27.2896 31.1296 39.1168l0.2048 0.2048c40.8576 40.6016 95.0272 62.9248 152.6272 62.9248 119.4496 0 216.6272-97.1776 216.6272-216.6272 0-43.6224-12.9024-85.6576-37.3248-121.6a13.6704 13.6704 0 1 0-22.6304 15.36c21.3504 31.3856 32.6144 68.1472 32.6144 106.24 0 104.3456-84.8896 189.2864-189.2864 189.2864-46.6432 0-90.7264-16.7424-125.3376-47.4624 27.4432-42.24 41.8304-91.0336 41.8304-141.824 0-50.7904-14.4384-99.5328-41.8304-141.824 34.6112-30.72 78.6944-47.4624 125.3376-47.4624 46.336 0 90.9312 16.9472 125.5424 47.6672 5.632 5.0176 14.2848 4.5056 19.3024-1.1776 5.0176-5.632 4.5056-14.2848-1.1776-19.3024a216.32512 216.32512 0 0 0-143.7184-54.5792c-52.48 0-102.144 18.5344-141.4656 52.5824-0.8192-0.9728-1.5872-1.9968-2.4064-2.9184-1.024-1.2288-2.048-2.4576-3.1232-3.6864-1.1776-1.3824-2.4064-2.7136-3.6352-4.096-0.7168-0.768-1.3824-1.5872-2.0992-2.304 42.4448-36.7104 96.1536-56.7808 152.7296-56.7808 128.9728 0 233.8816 104.9088 233.8816 233.8816 0.1024 129.024-104.8064 233.9328-233.7792 233.9328z" p-id="24735" style="user-select: auto;"></path><path d="M520.2944 688.384c-0.512-0.7168-1.024-1.4336-1.536-2.2016v-0.0512c0.4608 0.768 0.9728 1.536 1.536 2.2528zM553.6768 135.6288c-17.664-2.2016-37.6832 4.0448-50.8928 21.3504-13.2096-17.3056-33.1776-23.552-50.8416-21.3504-24.064 3.0208-49.9712 22.9376-49.9712 59.5968 0 65.9968 90.1632 124.1088 94.0032 126.5664 2.0992 1.3312 4.4544 1.9968 6.8096 1.9968 2.4064 0 4.7616-0.6656 6.8096-1.9968 3.84-2.4576 94.0032-60.5696 94.0032-126.5664 0-36.6592-25.856-56.576-49.92-59.5968zM502.784 295.7824c-26.0608-18.2784-75.4176-61.1328-75.4176-100.5568 0-21.4016 13.9264-32.7168 27.6992-34.4064 1.3824-0.1536 2.816-0.256 4.096-0.256 17.408 0 27.392 14.5408 30.7712 27.8016a12.6976 12.6976 0 0 0 12.288 9.5744h1.0752c5.8368 0 10.8544-3.9424 12.288-9.5744 3.6352-14.2848 14.9504-30.0544 34.8672-27.5456 13.7728 1.7408 27.6992 13.0048 27.6992 34.4064 0.0512 39.424-49.3056 82.2784-75.3664 100.5568zM486.5024 472.576c-0.2048-0.256-0.4096-0.5632-0.5632-0.8192 0.2048 0.256 0.4096 0.512 0.5632 0.8192z" p-id="24736" style="user-select: auto;"></path></svg>