<svg t="1646036289489" class="icon" viewBox="0 0 1024 1024" version="1.1" xmlns="http://www.w3.org/2000/svg" p-id="27263" width="200" height="200"><path d="M146.4 992.8c-1.6 0-2.4 0-4-0.8-8.8-2.4-13.6-10.4-12-19.2L197.6 696c2.4-8.8 10.4-13.6 19.2-12 8.8 2.4 13.6 10.4 12 19.2l-66.4 277.6c-2.4 7.2-8.8 12-16 12z" p-id="27264" style="user-select: auto;"></path><path d="M258.4 1020c-1.6 0-2.4 0-4-0.8l-224-53.6c-8.8-2.4-13.6-10.4-12-19.2s10.4-13.6 19.2-12l224 53.6c8.8 2.4 13.6 10.4 12 19.2-0.8 8-8 12.8-15.2 12.8zM231.2 717.6c-7.2 0-14.4-0.8-21.6-2.4-51.2-12-88-67.2-103.2-154.4-14.4-83.2-8.8-186.4 16.8-292 0-1.6 0.8-3.2 1.6-4.8l0.8-3.2c16.8-66.4 40-129.6 68-184 3.2-6.4 10.4-9.6 17.6-8l290.4 69.6c7.2 1.6 12 8 12 15.2 0 23.2-0.8 47.2-3.2 72-4 42.4-11.2 86.4-21.6 130.4C464 461.6 422.4 556.8 372 624c-46.4 61.6-95.2 93.6-140.8 93.6zM216 103.2c-24.8 48.8-44.8 106.4-60 165.6l-0.8 3.2c0 1.6-0.8 2.4-0.8 4-24 101.6-30.4 200.8-16.8 279.2 12.8 72.8 41.6 120 79.2 128.8 37.6 8.8 84.8-20 129.6-79.2 48-64 88-154.4 112-256 10.4-42.4 16.8-84.8 20.8-125.6 1.6-19.2 2.4-38.4 3.2-56.8L216 103.2zM877.6 992.8c-7.2 0-13.6-4.8-15.2-12l-66.4-277.6c-2.4-8.8 3.2-17.6 12-19.2 8.8-2.4 17.6 3.2 19.2 12l66.4 277.6c2.4 8.8-3.2 17.6-12 19.2h-4z" p-id="27265" style="user-select: auto;"></path><path d="M765.6 1020c-7.2 0-13.6-4.8-15.2-12-2.4-8.8 3.2-17.6 12-19.2l224-53.6c8.8-2.4 17.6 3.2 19.2 12 2.4 8.8-3.2 17.6-12 19.2l-224 53.6h-4zM792.8 717.6c-97.6 0-208-151.2-258.4-361.6-10.4-44-17.6-87.2-21.6-130.4-2.4-24.8-3.2-48.8-3.2-72 0-7.2 4.8-13.6 12-15.2l290.4-69.6c7.2-1.6 14.4 1.6 17.6 8 28 53.6 51.2 117.6 68 184l0.8 3.2c0 1.6 0.8 3.2 0.8 4.8 54.4 225.6 16 422.4-86.4 446.4-5.6 1.6-12.8 2.4-20 2.4zM542.4 167.2c0 18.4 0.8 37.6 3.2 56.8 4 40.8 10.4 83.2 20.8 125.6 48 201.6 159.2 355.2 241.6 335.2s111.2-206.4 63.2-408l-1.6-7.2c-14.4-59.2-35.2-116-60-165.6l-267.2 63.2zM512 96.8c-8.8 0-16-7.2-16-16V20c0-8.8 7.2-16 16-16s16 7.2 16 16v60.8c0 8.8-7.2 16-16 16zM589.6 101.6c-3.2 0-5.6-0.8-8.8-2.4-7.2-4.8-9.6-14.4-4.8-22.4l32.8-51.2c4.8-7.2 15.2-9.6 22.4-4.8 7.2 4.8 9.6 14.4 4.8 22.4l-32.8 51.2c-3.2 4.8-8 7.2-13.6 7.2zM434.4 101.6c-5.6 0-10.4-2.4-13.6-7.2l-32.8-51.2c-4.8-7.2-2.4-17.6 4.8-22.4 7.2-4.8 17.6-2.4 22.4 4.8L448 76.8c4.8 7.2 2.4 17.6-4.8 22.4-3.2 1.6-6.4 2.4-8.8 2.4zM140.8 272.8c-4 0-7.2-3.2-8-7.2-0.8-4 2.4-8 7.2-8.8l354.4-40c4.8-0.8 8 2.4 8.8 7.2 0.8 4-2.4 8-7.2 8.8l-354.4 40h-0.8z" p-id="27266" style="user-select: auto;"></path><path d="M883.2 272.8h-0.8l-354.4-40c-4-0.8-7.2-4.8-7.2-8.8s4-7.2 8.8-7.2l354.4 40c4 0.8 7.2 4.8 7.2 8.8 0 4-4 7.2-8 7.2z" p-id="27267" style="user-select: auto;"></path></svg>