<svg t="1655897903979" class="icon" viewBox="0 0 1024 1024" version="1.1" xmlns="http://www.w3.org/2000/svg" p-id="2496" width="200" height="200"><path d="M304 665.6a22.4 22.4 0 1 0 44.8 0 22.4 22.4 0 1 0-44.8 0z m275.2-48a22.4 22.4 0 1 0 44.8 0 22.4 22.4 0 1 0-44.8 0z" p-id="2497" style="user-select: auto;"></path><path d="M512 32C246.4 32 32 246.4 32 512s214.4 480 480 480 480-214.4 480-480S777.6 32 512 32z m176 585.6c0 51.2-38.4 89.6-86.4 89.6-48 0-86.4-38.4-86.4-86.4s38.4-86.4 86.4-86.4c9.6 0 16 0 22.4 3.2v-99.2L412.8 480v188.8c0 48-38.4 86.4-86.4 86.4-48 0-86.4-38.4-86.4-86.4s38.4-86.4 86.4-86.4c9.6 0 16 0 22.4 3.2V371.2c0-25.6 19.2-51.2 48-57.6l208-48c25.6-6.4 48 0 64 12.8C681.6 288 688 304 688 320v297.6z" p-id="2498" style="user-select: auto;"></path><path d="M412.8 371.2v41.6L624 368v-44.8h-6.4l-204.8 48z" p-id="2499" style="user-select: auto;"></path></svg>