<svg t="1646794969732" class="icon" viewBox="0 0 1024 1024" version="1.1" xmlns="http://www.w3.org/2000/svg" p-id="3214" width="200" height="200"><path d="M576 368H448c-8.8 0-16-7.2-16-16V208c0-8.8 7.2-16 16-16h128c8.8 0 16 7.2 16 16v144c0 8.8-7.2 16-16 16z m-112-32h96V224H464v112z" p-id="3215" style="user-select: auto;"></path><path d="M553.6 480.8H470.4c-8.8 0-16-7.2-16-16V352c0-8.8 7.2-16 16-16h83.2c8.8 0 16 7.2 16 16v112c0 9.6-7.2 16.8-16 16.8z m-67.2-32h51.2V368h-51.2v80.8zM658.4 224H349.6c-8.8 0-16-7.2-16-16V40.8c0-8.8 7.2-16 16-16h308.8c8.8 0 16 7.2 16 16V208c0 8.8-7.2 16-16 16z m-292.8-32h276.8V56.8H365.6V192zM291.2 140.8H224c-8.8 0-16-7.2-16-16s7.2-16 16-16h66.4c8.8 0 16 7.2 16 16s-6.4 16-15.2 16zM226.4 244.8c-6.4 0-12.8-4-15.2-10.4-3.2-8 0.8-17.6 8.8-20.8l62.4-24c8-3.2 17.6 0.8 20.8 8.8 3.2 8-0.8 17.6-8.8 20.8l-62.4 24c-1.6 1.6-3.2 1.6-5.6 1.6zM288.8 60c-1.6 0-4 0-5.6-0.8l-62.4-24c-8-3.2-12-12.8-8.8-20.8 3.2-8 12.8-12 20.8-8.8l62.4 24c8 3.2 12 12.8 8.8 20.8-3.2 6.4-8.8 9.6-15.2 9.6zM783.2 140.8h-66.4c-8.8 0-16-7.2-16-16s7.2-16 16-16h66.4c8.8 0 16 7.2 16 16s-7.2 16-16 16zM719.2 60c-6.4 0-12.8-4-15.2-10.4-3.2-8 0.8-17.6 8.8-20.8l62.4-24c8-3.2 17.6 0.8 20.8 8.8 3.2 8-0.8 17.6-8.8 20.8l-62.4 24c-1.6 1.6-4 1.6-5.6 1.6zM780.8 244.8c-1.6 0-4 0-5.6-0.8l-62.4-24c-8-3.2-12-12.8-8.8-20.8 3.2-8 12.8-12 20.8-8.8l62.4 24c8 3.2 12 12.8 8.8 20.8-2.4 5.6-8.8 9.6-15.2 9.6zM860 1020h-696c-41.6 0-76-34.4-76-76V618.4c0-41.6 34.4-76 76-76h696.8c41.6 0 76 34.4 76 76V944c-0.8 41.6-34.4 76-76.8 76z m-696-445.6c-24 0-44 20-44 44V944c0 24 20 44 44 44h696.8c24 0 44-20 44-44V618.4c0-24-20-44-44-44H164z" p-id="3216" style="user-select: auto;"></path><path d="M664 574.4H360c-5.6 0-10.4-2.4-13.6-7.2-3.2-4.8-3.2-10.4-1.6-15.2l41.6-93.6c2.4-5.6 8-9.6 14.4-9.6h221.6c6.4 0 12 4 14.4 9.6L678.4 552c2.4 4.8 1.6 10.4-1.6 15.2-2.4 4-7.2 7.2-12.8 7.2z m-280-32h256L612 480h-200L384 542.4zM284 574.4H177.6c-8.8 0-16-7.2-16-16v-65.6c0-8.8 7.2-16 16-16h105.6c8.8 0 16 7.2 16 16v65.6c0.8 8.8-6.4 16-15.2 16z m-90.4-32h73.6v-33.6h-73.6v33.6zM295.2 936c-4.8 0-8-3.2-8-8V633.6c0-4.8 3.2-8 8-8s8 3.2 8 8V928c0 4.8-3.2 8-8 8zM603.2 956.8c-96.8 0-175.2-78.4-175.2-175.2s78.4-175.2 175.2-175.2 175.2 78.4 175.2 175.2-78.4 175.2-175.2 175.2z m0-335.2c-88 0-159.2 71.2-159.2 159.2 0 88 71.2 159.2 159.2 159.2s159.2-71.2 159.2-159.2c0.8-88-71.2-159.2-159.2-159.2z" p-id="3217" style="user-select: auto;"></path><path d="M690.4 788.8c-4.8 0-8-3.2-8-8 0-44-36-79.2-79.2-79.2-4.8 0-8-3.2-8-8s3.2-8 8-8c52.8 0 95.2 43.2 95.2 95.2 0 4.8-3.2 8-8 8z" p-id="3218" style="user-select: auto;"></path></svg>