<svg t="1645066184110" class="icon" viewBox="0 0 1024 1024" version="1.1" xmlns="http://www.w3.org/2000/svg" p-id="3384" width="200" height="200"><path d="M501.76 292.408889c-77.368889 0-139.946667 62.577778-139.946667 138.808889s62.577778 138.808889 139.946667 138.808889c77.368889 0 139.946667-62.577778 139.946667-138.808889s-63.715556-138.808889-139.946667-138.808889z m0 221.866667c-45.511111 0-83.057778-36.408889-83.057778-81.92s37.546667-81.92 83.057778-81.92 83.057778 36.408889 83.057778 81.92-37.546667 81.92-83.057778 81.92z" p-id="3385" style="user-select: auto;"></path><path d="M500.622222 56.888889C293.546667 56.888889 125.155556 226.417778 125.155556 435.768889c0 100.124444 38.684444 195.697778 109.226666 267.377778l238.933334 242.346666c6.826667 6.826667 15.928889 10.24 25.031111 10.24h2.275555c9.102222 0 18.204444-3.413333 25.031111-10.24l241.208889-243.484444c69.404444-71.68 108.088889-166.115556 108.088889-266.24C876.088889 226.417778 707.697778 56.888889 500.622222 56.888889z m226.417778 605.297778c-1.137778 1.137778-76.231111 77.368889-226.417778 228.693333l-225.28-227.555556c-60.302222-61.44-93.297778-142.222222-93.297778-227.555555C182.044444 258.275556 325.404444 113.777778 500.622222 113.777778s318.577778 144.497778 318.577778 321.991111c0 85.333333-32.995556 166.115556-92.16 226.417778z" p-id="3386" style="user-select: auto;"></path></svg>  