<svg t="1645872509473" class="icon" viewBox="0 0 1024 1024" version="1.1" xmlns="http://www.w3.org/2000/svg" p-id="5658" width="200" height="200"><path d="M605.494 449.156a317.644 317.644 0 0 0-47.54-64.4c-57.52-60.24-138.56-97.82-228.22-97.82-174.06 0-315.64 141.6-315.64 315.64s141.58 315.64 315.64 315.64c76.06 0 145.9-27.04 200.46-72.02a294.016 294.016 0 0 1-52.58-60.34c-40.46 32.76-91.92 52.36-147.88 52.36-129.94 0-235.64-105.7-235.64-235.64 0-129.92 105.7-235.64 235.64-235.64 66.14 0 126.02 27.4 168.84 71.46 19.66 20.2 35.74 43.92 47.18 70.12 12.6 28.82 19.6 60.64 19.6 94.06 0 43.5-11.84 84.3-32.5 119.3a213.04 213.04 0 0 0 52.24 66.042c37.88-52.08 60.26-116.14 60.26-185.34 0-55.642-14.48-107.982-39.86-153.422z" fill="#6770E6" p-id="5659" style="user-select: auto;"></path><path d="M605.494 449.156a317.644 317.644 0 0 0-47.54-64.4c-57.52-60.24-138.56-97.82-228.22-97.82-174.06 0-315.64 141.6-315.64 315.64s141.58 315.64 315.64 315.64c76.06 0 145.9-27.04 200.46-72.02a294.016 294.016 0 0 1-52.58-60.34c-40.46 32.76-91.92 52.36-147.88 52.36-129.94 0-235.64-105.7-235.64-235.64 0-129.92 105.7-235.64 235.64-235.64 66.14 0 126.02 27.4 168.84 71.46 19.66 20.2 35.74 43.92 47.18 70.12 12.6 28.82 19.6 60.64 19.6 94.06 0 43.5-11.84 84.3-32.5 119.3a213.04 213.04 0 0 0 52.24 66.042c37.88-52.08 60.26-116.14 60.26-185.34 0-55.642-14.48-107.982-39.86-153.422z" fill="#6770E6" p-id="5660" style="user-select: auto;"></path><path d="M722.034 334.176c-60.78 0-117.28 18.68-164.08 50.58a293.662 293.662 0 0 0-59.38 53.64c-42.78 50.8-68.58 116.36-68.58 187.8 0 58.88 17.52 113.74 47.62 159.66a236.38 236.38 0 0 0 55.24-63.98c-14.62-28.76-22.86-61.28-22.86-95.68 0-43.52 13.18-84 35.76-117.68a213.174 213.174 0 0 1 59.74-59.36c33.46-22.1 73.52-34.98 116.54-34.98 116.9 0 212.02 95.1 212.02 212.02 0 116.9-95.12 212.02-212.02 212.02-52.16 0-99.98-18.94-136.94-50.3a319.324 319.324 0 0 1-54.9 58.28c51.34 44.82 118.48 72.02 191.84 72.02 161.02 0 292.02-131 292.02-292.02 0-161.02-131-292.02-292.02-292.02z" fill="#D476E2" p-id="5661" style="user-select: auto;"></path><path d="M722.034 878.216c-73.36 0-140.5-27.2-191.84-72.02a294.016 294.016 0 0 1-52.58-60.34 290.128 290.128 0 0 1-46.924-139.868 295.288 295.288 0 0 0-0.696 20.208c0 58.88 17.52 113.74 47.62 159.66a294.016 294.016 0 0 0 52.58 60.34c51.34 44.82 118.48 72.02 191.84 72.02 161.02 0 292.02-131 292.02-292.02 0-6.724-0.25-13.388-0.698-20-10.316 151.726-137.026 272.02-291.322 272.02z" fill="#B665C2" p-id="5662" style="user-select: auto;"></path><path d="M557.95 384.758c-57.514-60.236-138.564-97.818-228.226-97.818-174.044 0-315.64 141.594-315.64 315.64 0 3.346 0.072 6.678 0.174 10 5.302-169.434 144.768-305.64 315.464-305.64 83.764 0 159.994 32.814 216.554 86.244a298.978 298.978 0 0 1 11.674-8.426z" fill="#8F95E6" p-id="5663" style="user-select: auto;"></path><path d="M585.094 787.918a319.324 319.324 0 0 1-54.9 58.28 294.016 294.016 0 0 1-52.58-60.34 236.38 236.38 0 0 0 55.24-63.98 213.056 213.056 0 0 0 52.24 66.04z" fill="#6770E6" p-id="5664" style="user-select: auto;"></path><path d="M722.028 354.17c157.674 0 286.542 125.616 291.834 282.024 0.112-3.322 0.19-6.652 0.19-10 0-161.022-131.002-292.024-292.026-292.024S430 465.172 430 626.194c0 3.348 0.078 6.678 0.19 10 5.296-156.408 134.164-282.024 291.838-282.024z" fill="#EA82FA" p-id="5665" style="user-select: auto;"></path><path d="M769.448 366.942h-94.842a10.064 10.064 0 0 1-10.064-10.064v-24.88a10.064 10.064 0 0 1 10.064-10.064h94.842a10.064 10.064 0 0 1 10.064 10.064v24.88a10.064 10.064 0 0 1-10.064 10.064z" fill="#D476E2" p-id="5666" style="user-select: auto;"></path><path d="M769.448 321.934h-94.842a10.062 10.062 0 0 0-10.064 10.062v18a10.062 10.062 0 0 1 10.064-10.062h94.842a10.062 10.062 0 0 1 10.064 10.062v-18a10.064 10.064 0 0 0-10.064-10.062z" fill="#EA82FA" p-id="5667" style="user-select: auto;"></path><path d="M779.512 171.018h-114.968l-40 65.458 63.854 85.458h67.26l63.854-85.458z" fill="#FFAC8C" p-id="5668" style="user-select: auto;"></path><path d="M791.734 191.018l-12.222-20h-114.968l-12.222 20z" fill="#FFCDBA" p-id="5669" style="user-select: auto;"></path><path d="M680.338 236.476h83.38l-24-65.458h-35.38z" fill="#FF8354" p-id="5670" style="user-select: auto;"></path><path d="M747.05 191.018l-7.332-20h-35.38l-7.332 20z" fill="#FF9D78" p-id="5671" style="user-select: auto;"></path><path d="M755.658 321.934l63.854-85.458h-55.794l-27.308 85.458zM707.646 321.934l-27.308-85.458h-55.794l63.854 85.458z" fill="#FF8354" p-id="5672" style="user-select: auto;"></path><path d="M585.094 747.918a319.324 319.324 0 0 1-54.9 58.28c-54.56 44.98-124.4 72.02-200.46 72.02-167.34 0-304.634-130.884-314.988-295.64-0.416 6.616-0.652 13.28-0.652 20 0 174.04 141.58 315.64 315.64 315.64 76.06 0 145.9-27.04 200.46-72.02 20.64-17.02 39.1-36.6 54.9-58.28 37.88-52.08 60.26-116.14 60.26-185.34 0-6.704-0.222-13.356-0.636-19.958-3.872 61.506-25.43 118.284-59.624 165.298z" fill="#5A62C9" p-id="5673" style="user-select: auto;"></path><path d="M573.146 251.61a11.808 11.808 0 0 1-11.808-11.808c0-6.284-4.742-11.77-11.012-12.176a11.798 11.798 0 0 0-12.584 11.772v0.404a11.808 11.808 0 0 1-11.808 11.808c-6.284 0-11.77 4.742-12.176 11.012a11.798 11.798 0 0 0 11.772 12.584h0.404a11.808 11.808 0 0 1 11.808 11.808c0 6.284 4.742 11.77 11.012 12.176a11.798 11.798 0 0 0 12.584-11.772v-0.404a11.808 11.808 0 0 1 11.808-11.808h0.404a11.798 11.798 0 0 0 11.772-12.584c-0.406-6.27-5.894-11.012-12.176-11.012zM875.918 113.972a14.166 14.166 0 0 1-14.166-14.166c0-7.538-5.688-14.122-13.212-14.608a14.156 14.156 0 0 0-15.098 14.124v0.486a14.166 14.166 0 0 1-14.166 14.166c-7.538 0-14.122 5.688-14.608 13.212a14.156 14.156 0 0 0 14.124 15.098h0.486a14.166 14.166 0 0 1 14.166 14.166c0 7.538 5.688 14.122 13.212 14.61a14.156 14.156 0 0 0 15.098-14.124v-0.486a14.166 14.166 0 0 1 14.166-14.166h0.486a14.156 14.156 0 0 0 14.124-15.098c-0.49-7.524-7.074-13.214-14.612-13.214z" fill="#69EBFC" p-id="5674" style="user-select: auto;"></path></svg>